<svg xmlns="http://www.w3.org/2000/svg" viewBox="0 0 512 512" fill="#61dafb">
  <path d="M256 0C114.6 0 0 114.6 0 256s114.6 256 256 256s256-114.6 256-256S397.4 0 256 0zM256 464c-114.7 0-208-93.31-208-208S141.3 48 256 48s208 93.31 208 208S370.7 464 256 464zM296.8 260.8c-4.703 17.86-24.28 28.56-43.71 23.86c-19.31-4.703-31.22-23.5-26.47-42.89c4.703-19.31 24.56-31.42 43.88-26.72C289.8 219.8 301.5 241.5 296.8 260.8zM336 280c-4.938 0-9-4.062-9-9c0-4.938 4.062-9 9-9s9 4.062 9 9C345 275.9 340.9 280 336 280zM344 232c-8.844 0-16-7.166-16-16S335.2 200 344 200S360 207.2 360 216S352.8 232 344 232z"/>
</svg>
